<svg id="Capa_1" data-name="Capa 1" xmlns="http://www.w3.org/2000/svg" viewBox="0 0 1397 1500"><defs><style>.cls-1{fill:#14c6a4;}</style></defs><title>ISOTIPO CHINCHIN</title><path class="cls-1" d="M953.19,0h225.49a1,1,0,0,1,1,1,1,1,0,0,1-1,1C948,33.41,766.32,354.94,766.32,748.5S948,1463.59,1178.68,1494.91a1,1,0,0,1,0,2.09H953.19c-248.46,0-448.89-335.11-448.89-748.5S705.77,0,953.19,0"/><path class="cls-1" d="M448.89,0H674.38a1,1,0,0,1,1,1,1,1,0,0,1-1,1C443.67,33.41,262,354.94,262,748.5s181.64,715.09,412.35,746.41a1,1,0,0,1,0,2.09H448.89C200.43,1497,0,1161.89,0,748.5S201.48,0,448.89,0"/><ellipse class="cls-1" cx="1260.09" cy="374.25" rx="137.34" ry="187.12"/><ellipse class="cls-1" cx="1260.09" cy="1122.75" rx="137.34" ry="187.12"/></svg>