<?xml version="1.0" encoding="UTF-8"?>
<svg version="1.1" xmlns="http://www.w3.org/2000/svg" width="512" height="512">
<path d="M0 0 C1.68313175 1.31248736 3.35094671 2.64494325 5 4 C5.76441406 4.60199219 6.52882812 5.20398438 7.31640625 5.82421875 C15.90739546 12.95100458 22.78961991 22.16347008 28 32 C28 32.66 28 33.32 28 34 C28.84820312 33.48050781 29.69640625 32.96101563 30.5703125 32.42578125 C52.73866492 19.12540847 77.73715476 14.18060924 103.00292969 20.45654297 C118.94664397 24.79526033 132.10583254 32.46498147 144 44 C144.61230469 44.53882813 145.22460938 45.07765625 145.85546875 45.6328125 C156.05741357 54.92428627 162.18526813 68.30520857 167 81 C167 81.66 167 82.32 167 83 C168.27939453 82.97905273 169.55878906 82.95810547 170.87695312 82.93652344 C175.70024066 82.86320068 180.52348081 82.81787038 185.34716797 82.78027344 C187.42049489 82.76036539 189.49376724 82.73322889 191.56689453 82.69824219 C218.46558109 82.25621447 241.83071202 88.95934773 261.80371094 107.71264648 C278.15068382 123.72112144 287.92795865 145.45238085 288.29223633 168.31616211 C288.36001259 180.21947016 287.9906848 190.72369 284 202 C283.649375 203.03511719 283.29875 204.07023438 282.9375 205.13671875 C274.36272647 227.91346094 256.76191476 245.04256034 234.98046875 255.2734375 C225.08764197 259.70062738 215.26945437 262.13176676 204.43408203 262.11352539 C203.70168808 262.11367142 202.96929413 262.11381744 202.21470642 262.1139679 C199.81237751 262.1132755 197.41012774 262.10551482 195.0078125 262.09765625 C193.33486982 262.09578968 191.66192658 262.0943669 189.98898315 262.09336853 C185.59959385 262.08956219 181.21023797 262.07974808 176.82086182 262.06866455 C172.33630831 262.05840985 167.85174937 262.05386223 163.3671875 262.04882812 C154.57810971 262.03812403 145.78905902 262.02107035 137 262 C137 262.66 137 263.32 137 264 C137.98226562 264.12955078 137.98226562 264.12955078 138.984375 264.26171875 C156.56128176 266.96776795 171.74868921 275.93512749 182.3828125 290.1953125 C193.80343483 306.66943166 197.31307962 324.91049028 194.46875 344.6953125 C193.78612667 347.53710308 192.97542289 350.24611211 192 353 C191.7215625 353.85464844 191.443125 354.70929688 191.15625 355.58984375 C184.79587762 373.38243716 170.71838877 385.19570495 154.4453125 393.640625 C142.28390592 398.43900311 130.63829877 398.43522991 117.76538086 398.40405273 C115.63057092 398.40976275 113.49576404 398.41672944 111.36096191 398.42485046 C105.59508161 398.44271554 99.82935401 398.44162745 94.06345439 398.43590808 C89.24655778 398.43281025 84.42969026 398.43891445 79.6127978 398.44494683 C68.25754676 398.45896508 56.90237102 398.45744988 45.54711914 398.44604492 C33.8259622 398.43453285 22.10503325 398.44869732 10.3839063 398.4754414 C0.31404537 398.49755872 -9.75574376 398.50424574 -19.82562727 398.49836498 C-25.83783308 398.49498875 -31.84989231 398.49745627 -37.86207771 398.51461601 C-43.50519798 398.53002253 -49.14797778 398.5261999 -54.79108429 398.50731087 C-56.86519491 398.50360921 -58.93933044 398.50677897 -61.0134182 398.51719666 C-63.83661977 398.53029896 -66.6586757 398.5189559 -69.48182678 398.50120544 C-70.3092386 398.51081045 -71.13665042 398.52041546 -71.98913532 398.53031152 C-77.45322728 398.45923353 -77.45322728 398.45923353 -80.0098381 396.31194019 C-81.19832803 393.53692164 -81.36937839 391.52868723 -81.36076355 388.50775146 C-81.36694954 386.83350098 -81.36694954 386.83350098 -81.3732605 385.12542725 C-81.36247467 383.90551086 -81.35168884 382.68559448 -81.34057617 381.42871094 C-81.34101425 380.14065552 -81.34145233 378.8526001 -81.34190369 377.5255127 C-81.34276432 373.99681077 -81.32512777 370.46841487 -81.30418181 366.93978405 C-81.28542629 363.25090779 -81.28366546 359.56202449 -81.28010559 355.87310791 C-81.2707818 348.88914472 -81.24616357 341.90532244 -81.21605712 334.92142129 C-81.18252345 326.96986731 -81.16602971 319.01830659 -81.15097082 311.0666995 C-81.11961425 294.71105052 -81.06684734 278.35554324 -81 262 C-81.88878593 262.00683681 -82.77757187 262.01367363 -83.69329071 262.02071762 C-84.93850746 262.03029621 -86.18372421 262.0398748 -87.4666748 262.04974365 C-88.47486125 262.05753397 -88.47486125 262.05753397 -89.50341511 262.06548166 C-93.21097019 262.09409737 -96.91852757 262.12232415 -100.626091 262.14983749 C-107.5844378 262.20183153 -114.54259874 262.25828544 -121.50068665 262.33872223 C-124.92751217 262.37307652 -128.3542704 262.38001384 -131.78125 262.390625 C-132.46006226 262.40107849 -133.13887451 262.41153198 -133.83825684 262.42230225 C-158.03026431 262.77533025 -180.168912 253.84524021 -197.80371094 237.28735352 C-214.15068382 221.27887856 -223.92795865 199.54761915 -224.29223633 176.68383789 C-224.36001259 164.78052984 -223.9906848 154.27631 -220 143 C-219.649375 141.96488281 -219.29875 140.92976562 -218.9375 139.86328125 C-210.36675567 117.09724162 -192.7555488 99.91412323 -170.95703125 89.7265625 C-161.47514843 85.48943936 -152.3747686 83.37386553 -142 83 C-142.33 82.01 -142.66 81.02 -143 80 C-144.64429374 56.2533392 -136.76939589 32.37334142 -121.21484375 14.42578125 C-120.11849609 13.22501953 -120.11849609 13.22501953 -119 12 C-118.34128906 11.27167969 -117.68257813 10.54335937 -117.00390625 9.79296875 C-86.91208934 -21.87306796 -35.02146442 -24.77841773 0 0 Z " fill="#c9c6c6" transform="translate(224,65)"/>
<path d="M0 0 C1.55162594 -0.00237673 3.10325004 -0.00868114 4.65484619 -0.01858521 C8.84120527 -0.03389608 13.02532589 0.00641643 17.21132612 0.0579958 C21.60026811 0.10331523 25.98918963 0.09958635 30.37832642 0.10198975 C37.74055916 0.11304018 45.10194813 0.15781269 52.46386719 0.22558594 C61.91334734 0.31239996 71.36215127 0.34327842 80.81198692 0.35663223 C88.94513859 0.36856836 97.07814341 0.4060566 105.21118975 0.44767284 C107.82282076 0.45996125 110.43444661 0.46874196 113.04609299 0.47705841 C117.14539644 0.49174133 121.24429044 0.52235641 125.34339142 0.56537247 C126.84781064 0.57893239 128.35228488 0.58745536 129.85676193 0.59059525 C131.90901784 0.59583967 133.96025284 0.61950077 136.01229858 0.64801025 C137.16076956 0.65693424 138.30924053 0.66585823 139.49251366 0.67505264 C142.79835405 1.11963837 144.20324999 1.5805012 146.42431641 4.06933594 C146.93212509 6.62491131 146.93212509 6.62491131 146.94329834 9.74504089 C146.95721115 10.92714645 146.97112396 12.10925201 146.98545837 13.32717896 C146.98042801 14.62549652 146.97539764 15.92381409 146.97021484 17.26147461 C146.97894803 18.6412218 146.98943293 20.02095885 147.00154114 21.40068054 C147.02945359 25.1483975 147.03280469 28.89578486 147.03182125 32.64359069 C147.03494589 36.55945111 147.06055466 40.47516209 147.08380127 44.39094543 C147.1243994 51.80694707 147.14471088 59.2228607 147.15777516 66.63895637 C147.17363235 75.08150784 147.2120425 83.52390926 147.25236845 91.9663738 C147.33481952 109.33398311 147.38887901 126.7015684 147.42431641 144.06933594 C148.55776489 144.26774834 148.55776489 144.26774834 149.71411133 144.47016907 C151.20068237 144.73448982 151.20068237 144.73448982 152.71728516 145.00415039 C153.69979248 145.17767532 154.6822998 145.35120026 155.69458008 145.52998352 C171.34503071 148.62226327 185.06413067 159.09546063 194 171.98535156 C204.62922794 188.01979604 207.61607171 205.82374388 204.89306641 224.76464844 C204.21044308 227.60643902 203.39973929 230.31544804 202.42431641 233.06933594 C202.14587891 233.92398438 201.86744141 234.77863281 201.58056641 235.65917969 C195.22019403 253.4517731 181.14270518 265.26504089 164.86962891 273.70996094 C152.70822233 278.50833904 141.06261517 278.50456585 128.18969727 278.47338867 C126.05488733 278.47909869 123.92008045 278.48606538 121.78527832 278.4941864 C116.01939801 278.51205148 110.25367041 278.51096338 104.4877708 278.50524402 C99.67087419 278.50214619 94.85400666 278.50825039 90.0371142 278.51428276 C78.68186316 278.52830102 67.32668743 278.52678581 55.97143555 278.51538086 C44.25027861 278.50386879 32.52934965 278.51803326 20.80822271 278.54477733 C10.73836178 278.56689465 0.66857265 278.57358168 -9.40131086 278.56770092 C-15.41351667 278.56432469 -21.4255759 278.56679221 -27.43776131 278.58395195 C-33.08088157 278.59935847 -38.72366137 278.59553583 -44.36676788 278.5766468 C-46.4408785 278.57294515 -48.51501403 278.57611491 -50.58910179 278.58653259 C-53.41230336 278.5996349 -56.2343593 278.58829184 -59.05751038 278.57054138 C-59.8849222 278.58014639 -60.71233401 278.58975139 -61.56481892 278.59964746 C-64.73792712 278.55837104 -66.98161449 278.50751103 -69.58257771 276.58908558 C-71.05727472 272.84742288 -71.0021826 269.21373356 -70.98355103 265.25213623 C-70.99105326 264.35189799 -70.9985555 263.45165974 -71.00628507 262.52414155 C-71.02765402 259.5010145 -71.02750142 256.47827517 -71.02734375 253.45507812 C-71.03795492 251.29014989 -71.0497846 249.12522734 -71.06274414 246.96031189 C-71.09356259 241.07381931 -71.10467018 235.18744829 -71.11038637 229.30088329 C-71.11473734 225.62361197 -71.12310978 221.94637228 -71.13288498 218.26911163 C-71.16664609 205.44127283 -71.18376803 192.61352615 -71.18652344 179.78564453 C-71.1895578 167.82717801 -71.22999504 155.86922863 -71.28767169 143.91091228 C-71.33543862 133.64580331 -71.35625549 123.38086509 -71.35631406 113.11564565 C-71.35685241 106.98396192 -71.36846738 100.8527843 -71.40748978 94.72121429 C-71.44333191 88.95242741 -71.44564746 83.18458454 -71.4223175 77.41574287 C-71.41945552 75.30018059 -71.42852672 73.18456291 -71.45049667 71.06911278 C-71.62568171 53.08326356 -71.62568171 53.08326356 -67.2684021 47.96856689 C-65.46069908 46.42012405 -65.46069908 46.42012405 -63.57568359 45.06933594 C-62.26084953 43.90315694 -60.95158433 42.73064594 -59.64990234 41.54980469 C-58.98007324 40.98052246 -58.31024414 40.41124023 -57.62011719 39.82470703 C-54.09636165 36.79917535 -50.75662349 33.57795708 -47.38818359 30.38183594 C-31.91672233 15.76378569 -31.91672233 15.76378569 -27.27376747 11.66478348 C-25.47327758 10.02328116 -25.47327758 10.02328116 -23.6210537 7.85093307 C-16.41118127 0.24368097 -9.90972888 -0.19660499 0 0 Z " fill="#f5f5f6" transform="translate(213.57568359375,184.9306640625)"/>
<path d="M0 0 C1.00401855 0.00829834 2.00803711 0.01659668 3.04248047 0.02514648 C20.40334399 0.41799579 35.53099425 7.15158712 47.89453125 19.41796875 C60.44319589 32.57918422 67.11296555 48.62733493 67 66.75 C66.99581055 67.67208252 66.99162109 68.59416504 66.98730469 69.54418945 C66.87179753 76.53052915 66.03089146 82.82145945 63.6875 89.4375 C63.4090625 90.29214844 63.130625 91.14679688 62.84375 92.02734375 C56.93389343 108.55965804 43.98407996 120.62636025 28.8125 128.6875 C13.39094673 135.97910673 -4.91712309 137.1880864 -21.171875 131.69921875 C-39.10620699 124.49425702 -53.64543032 113.0768329 -61.7890625 95.1953125 C-68.60913366 78.24484324 -70.26509649 59.67500255 -63.3125 42.4375 C-59.32453076 33.44907192 -54.28401569 26.33775659 -47.3125 19.4375 C-46.31669922 18.39142578 -46.31669922 18.39142578 -45.30078125 17.32421875 C-40.82525632 12.93394192 -35.98310406 9.94833517 -30.4375 7.125 C-29.80191162 6.79935059 -29.16632324 6.47370117 -28.51147461 6.13818359 C-19.29733264 1.68118573 -10.1982965 -0.10985442 0 0 Z " fill="#c7bfbf" transform="translate(352.3125,328.5625)"/>
<path d="M0 0 C1.55810396 0.00254305 3.11621868 0.00110511 4.67431641 -0.00398254 C8.87703047 -0.00655068 13.07740307 0.0461216 17.27957582 0.10918307 C21.68100183 0.16568764 26.08248966 0.17075054 30.48422241 0.18141174 C38.80715594 0.20931452 47.12901746 0.283072 55.45148027 0.37355715 C64.93142819 0.47437553 74.41142903 0.52369325 83.89178014 0.56881607 C103.38207304 0.66272943 122.87137006 0.82089262 142.36083984 1.02172852 C142.36083984 1.35172852 142.36083984 1.68172852 142.36083984 2.02172852 C93.19083984 2.02172852 44.02083984 2.02172852 -6.63916016 2.02172852 C-6.63916016 19.84172852 -6.63916016 37.66172852 -6.63916016 56.02172852 C-11.63916016 61.02172852 -11.63916016 61.02172852 -14.44233704 61.6230011 C-15.46159775 61.61189804 -16.48085846 61.60079498 -17.53100586 61.58935547 C-18.70796021 61.58875122 -19.88491455 61.58814697 -21.09753418 61.58752441 C-22.32427856 61.56194458 -23.55102295 61.53636475 -24.81494141 61.51000977 C-26.51765198 61.50245667 -26.51765198 61.50245667 -28.25476074 61.49475098 C-32.48731816 61.46862844 -36.71951502 61.39882135 -40.95166016 61.33422852 C-50.41853516 61.23110352 -59.88541016 61.12797852 -69.63916016 61.02172852 C-69.63916016 87.75172852 -69.63916016 114.48172852 -69.63916016 142.02172852 C-69.96916016 142.02172852 -70.29916016 142.02172852 -70.63916016 142.02172852 C-70.80159343 130.55594944 -70.92585272 119.09044558 -71.00184536 107.62374878 C-71.03832479 102.29880027 -71.08777847 96.97464087 -71.16723633 91.65014648 C-71.24348484 86.50833419 -71.28519022 81.36727923 -71.30330086 76.22494507 C-71.3162012 74.26651085 -71.34139364 72.30811651 -71.37927055 70.3500061 C-71.70009988 53.07169081 -71.70009988 53.07169081 -67.34179688 47.97607422 C-65.52975464 46.40351868 -65.52975464 46.40351868 -63.63916016 45.02172852 C-62.3252398 43.85452015 -61.0160659 42.68192972 -59.71337891 41.50219727 C-59.0435498 40.93291504 -58.3737207 40.36363281 -57.68359375 39.77709961 C-54.15983821 36.75156792 -50.82010005 33.53034966 -47.45166016 30.33422852 C-31.96690025 15.70361318 -31.96690025 15.70361318 -27.33699608 11.61736202 C-25.53654482 9.97588626 -25.53654482 9.97588626 -23.68676186 7.80165195 C-16.46043742 0.16707399 -9.93137782 -0.22850922 0 0 Z " fill="#e2dede" transform="translate(213.63916015625,184.978271484375)"/>
<path d="M0 0 C1.01769769 -0.00807831 1.01769769 -0.00807831 2.05595493 -0.01631981 C4.32842226 -0.03062268 6.60030899 -0.02349029 8.87280273 -0.01637268 C10.50235462 -0.02207501 12.13190252 -0.02903873 13.76144409 -0.03717041 C18.18701198 -0.05513099 22.61238191 -0.05392816 27.03797531 -0.04822803 C30.73101134 -0.04514074 34.42400909 -0.0512234 38.11703968 -0.05726677 C46.82765185 -0.07131954 55.53816597 -0.06974411 64.2487793 -0.05836487 C73.23978894 -0.04687901 82.23050047 -0.06096542 91.22147083 -0.08776134 C98.93791972 -0.10989905 106.65427489 -0.1165602 114.37075329 -0.11068493 C118.98081284 -0.10730998 123.59068121 -0.10976615 128.20071411 -0.12693596 C132.53462943 -0.14237268 136.86810204 -0.13848627 141.20199966 -0.11963081 C142.79352863 -0.115936 144.38509017 -0.11907935 145.9765892 -0.1295166 C148.14750465 -0.14266809 150.31694175 -0.13123353 152.48779297 -0.11352539 C153.70305161 -0.11331611 154.91831024 -0.11310682 156.1703949 -0.1128912 C159.84708636 0.48591964 161.07178111 1.40107538 163.24389648 4.38768005 C163.18139648 7.51268005 163.18139648 7.51268005 162.24389648 10.38768005 C158.60263684 12.81518648 156.90154131 12.64110561 152.56335449 12.64837646 C151.88095467 12.65220201 151.19855485 12.65602756 150.49547625 12.65996903 C148.20385617 12.67030598 145.91248632 12.66630566 143.62084961 12.66233826 C141.97997302 12.66668431 140.33909846 12.6718671 138.69822693 12.67782593 C134.23757881 12.69123759 129.7770153 12.69179227 125.31635094 12.68926263 C121.59593982 12.68819454 117.87554593 12.69307204 114.15513849 12.69786805 C105.38083773 12.7089704 96.60657978 12.70939633 87.83227539 12.70335388 C78.77145007 12.69731023 69.71077987 12.70963335 60.64998102 12.73092395 C52.87752874 12.74851771 45.10512595 12.7545449 37.33265448 12.75128621 C32.68743009 12.74946989 28.0423164 12.75214424 23.39710999 12.76600075 C19.0304513 12.77853863 14.66403523 12.77667355 10.29738045 12.76358986 C8.69253013 12.7612158 7.08766295 12.76398829 5.48283195 12.77221298 C3.29641586 12.78261252 1.11082419 12.77463572 -1.07556152 12.76190186 C-2.91284191 12.76215347 -2.91284191 12.76215347 -4.78723907 12.76241016 C-7.75610352 12.38768005 -7.75610352 12.38768005 -9.64629364 11.05179119 C-11.40560339 8.41378353 -11.20456191 6.46282333 -10.75610352 3.38768005 C-7.47152242 -0.01596364 -4.58655212 0.00917076 0 0 Z " fill="#e3e0e0" transform="translate(176.756103515625,299.61231994628906)"/>
<path d="M0 0 C0.67352715 -0.00311998 1.3470543 -0.00623996 2.04099137 -0.00945449 C4.30264899 -0.01744525 6.56403912 -0.01110674 8.82569885 -0.00482178 C10.44524798 -0.00753119 12.06479588 -0.01109184 13.68434143 -0.01544189 C18.08721512 -0.02457482 22.48999529 -0.02101774 26.89287066 -0.01468372 C31.49678983 -0.00962754 36.10070088 -0.01431419 40.70462036 -0.01745605 C48.43786561 -0.02109718 56.17107268 -0.01629315 63.90431213 -0.0067749 C72.8480725 0.00410608 81.79174165 0.00058725 90.7354998 -0.01042771 C98.40945258 -0.01950101 106.08337788 -0.02078554 113.75733429 -0.01555037 C118.34275912 -0.01243041 122.92814107 -0.01202198 127.51356316 -0.01862335 C131.82519427 -0.02439665 136.13670772 -0.02040019 140.44832611 -0.00883484 C142.03179033 -0.00618801 143.61526444 -0.00695374 145.19872475 -0.01136017 C147.358366 -0.01681629 149.51762901 -0.00998088 151.67724609 0 C152.8864292 0.00075405 154.09561232 0.0015081 155.34143734 0.002285 C158.30827887 0.24625107 160.0099985 0.50331348 162.40211487 2.25396729 C163.33961487 5.69146729 163.33961487 5.69146729 163.40211487 9.25396729 C162.32592773 10.95239353 162.32592773 10.95239353 160.40211487 12.25396729 C157.41763306 12.63428402 157.41763306 12.63428402 153.68360901 12.64164734 C152.99712564 12.64703288 152.31064226 12.65241841 151.60335636 12.65796715 C149.29781347 12.67230091 146.99284036 12.66513003 144.68727112 12.65802002 C143.03654009 12.66372074 141.385813 12.67068384 139.73509216 12.67881775 C135.24755159 12.69679625 130.76020604 12.69557214 126.27264023 12.68987536 C122.52985372 12.68679062 118.78710506 12.6928679 115.04432392 12.69891411 C106.21726664 12.71297281 97.39030611 12.71138657 88.56324768 12.70001221 C79.44784039 12.68852607 70.33272713 12.70261188 61.21735859 12.72940868 C53.39818653 12.75153686 45.57910697 12.75820969 37.75990582 12.75233227 C33.08670704 12.74895499 28.41369683 12.75142882 23.74052429 12.7685833 C19.34753141 12.78400485 14.95497559 12.78015061 10.56200027 12.76127815 C8.94747631 12.75757908 7.3329203 12.76073892 5.71842575 12.77116394 C3.51864742 12.78428654 1.32033483 12.77290672 -0.87937927 12.75517273 C-2.11160721 12.75496345 -3.34383514 12.75475416 -4.61340332 12.75453854 C-7.59788513 12.25396729 -7.59788513 12.25396729 -9.52560425 10.41795444 C-11.05146052 7.33859956 -10.58188283 5.48710259 -9.59788513 2.25396729 C-5.97279408 -0.16276008 -4.31534359 0.0026919 0 0 Z " fill="#D8D8D8" transform="translate(174.59788513183594,272.74603271484375)"/>
<path d="M0 0 C0.68083983 -0.00311998 1.36167966 -0.00623996 2.063151 -0.00945449 C4.35555215 -0.01746246 6.64769064 -0.01110005 8.94009399 -0.00482178 C10.57919979 -0.00753045 12.21830436 -0.01109069 13.85740662 -0.01544189 C18.31818848 -0.02458431 22.77887815 -0.02101367 27.23966169 -0.01468372 C31.90231042 -0.00963158 36.56495108 -0.01431314 41.2276001 -0.01745605 C49.06097841 -0.02109872 56.89431905 -0.01628949 64.72769165 -0.0067749 C73.78787839 0.00410264 82.84797507 0.00059037 91.90815961 -0.01042771 C99.67975587 -0.0195011 107.45132499 -0.02078538 115.22292483 -0.01555037 C119.86760918 -0.01242998 124.51225119 -0.01202309 129.15693283 -0.01862335 C133.52518366 -0.02439665 137.89331835 -0.02040018 142.26155663 -0.00883484 C143.86598327 -0.00618785 145.47041967 -0.00695402 147.07484245 -0.01136017 C149.26299939 -0.01681574 151.45078294 -0.00998148 153.63891602 0 C154.86414663 0.00075405 156.08937725 0.0015081 157.35173607 0.002285 C160.29823611 0.24191421 161.96836288 0.70509563 164.44644165 2.25396729 C163.70780884 2.47310791 162.96917603 2.69224854 162.2081604 2.91802979 C154.73741675 5.25323047 148.19885263 8.32111143 141.44644165 12.25396729 C138.76687002 13.5937531 136.72960637 13.37193638 133.72808838 13.36317444 C132.51106735 13.36191559 131.29404633 13.36065674 130.04014587 13.35935974 C128.68420349 13.35275596 127.32826172 13.34602245 125.97232056 13.33917236 C124.54996327 13.33557766 123.12760496 13.33237244 121.70524597 13.32952881 C117.83535267 13.32014236 113.96552044 13.30380578 110.09566164 13.2851584 C107.67912718 13.273528 105.26259013 13.26285867 102.84605026 13.25241661 C95.28868617 13.21916743 87.73136551 13.18109822 80.17405665 13.1370514 C71.44377344 13.08631746 62.71362762 13.0520807 53.98322165 13.03187066 C47.239127 13.01520033 40.49520916 12.98333757 33.75123346 12.94002455 C29.72132383 12.91451023 25.69163486 12.89559044 21.66164017 12.8926487 C17.87100779 12.88949952 14.08094883 12.86754589 10.29049492 12.83109283 C8.89895711 12.82096979 7.50735074 12.81765228 6.11578178 12.82162285 C4.21672884 12.82600329 2.3176704 12.80353073 0.41876221 12.77967834 C-0.64423285 12.77469235 -1.7072279 12.76970636 -2.80243492 12.76456928 C-6.24908572 12.12487905 -7.47206134 11.03430963 -9.55355835 8.25396729 C-9.26104119 0.94103827 -6.8538205 0.00422069 0 0 Z " fill="#e3e0e0" transform="translate(172.55355834960938,328.74603271484375)"/>
<path d="M0 0 C1.64488403 -0.002062 1.64488403 -0.002062 3.32299805 -0.00416565 C4.5314035 -0.00057037 5.73980896 0.0030249 6.98483276 0.00672913 C8.25308899 0.0065831 9.52134521 0.00643707 10.82803345 0.00628662 C14.31128908 0.00599903 17.79451047 0.01188952 21.27775812 0.01886058 C24.91594425 0.02510055 28.55413112 0.02569843 32.19232178 0.02688599 C39.08421 0.0299974 45.97608242 0.03820824 52.86796367 0.04823548 C60.7130823 0.0594025 68.55820168 0.06490855 76.40332627 0.06993091 C92.54362312 0.080391 108.68390304 0.09818758 124.82418823 0.12025452 C121.35918823 6.55525452 121.35918823 6.55525452 117.82418823 13.12025452 C101.98629045 13.08225683 86.14865902 13.02324512 70.31096268 12.93635178 C62.95729453 12.89653551 55.60373381 12.86415626 48.24996948 12.84925842 C41.84071089 12.8362552 35.43168838 12.80932495 29.02256274 12.76564145 C25.62864243 12.74299622 22.23501362 12.72734563 18.84101105 12.72837067 C15.05281361 12.72601495 11.26554643 12.69904574 7.47750854 12.66615295 C6.35109955 12.67118332 5.22469055 12.67621368 4.06414795 12.68139648 C2.51610977 12.66052727 2.51610977 12.66052727 0.9367981 12.63923645 C0.04081532 12.63554928 -0.85516747 12.63186211 -1.77830124 12.6280632 C-4.98600241 11.94865075 -6.21047656 10.70290601 -8.17581177 8.12025452 C-8.05081177 4.43275452 -8.05081177 4.43275452 -7.17581177 1.12025452 C-4.62773332 -0.15378471 -2.8534335 -0.00274897 0 0 Z " fill="#e3e0e0" transform="translate(173.17581176757813,355.87974548339844)"/>
<path d="M0 0 C1.01382248 -0.00274933 2.02764496 -0.00549866 3.07218933 -0.0083313 C4.18349213 -0.00114075 5.29479492 0.0060498 6.43977356 0.01345825 C7.61064011 0.0131662 8.78150665 0.01287415 9.987854 0.01257324 C13.19838731 0.01372854 16.40874669 0.02376497 19.61924529 0.03772116 C22.9744782 0.05021639 26.32971446 0.05139806 29.68496704 0.05377197 C36.03852468 0.0599903 42.39201356 0.07640586 48.74554092 0.09647095 C55.97883682 0.118819 63.21213599 0.12982062 70.44545782 0.13986182 C85.32486864 0.1607718 100.20421108 0.19635707 115.08357239 0.24050903 C114.75357239 4.53050903 114.42357239 8.82050903 114.08357239 13.24050903 C98.48920204 13.17938797 82.89501635 13.10254477 67.30083752 13.00479412 C60.06038047 12.95980498 52.81997295 12.92039764 45.579422 12.89407349 C39.26945207 12.87111851 32.95963849 12.8377488 26.64979249 12.79180747 C23.30792905 12.76784116 19.96622076 12.74913488 16.6242733 12.74289513 C12.89587038 12.73331779 9.1680375 12.70533425 5.43977356 12.67288208 C4.32847076 12.67431717 3.21716797 12.67575226 2.07218933 12.67723083 C1.05836685 12.66469269 0.04454437 12.65215454 -1 12.63923645 C-1.88215589 12.63462749 -2.76431177 12.63001852 -3.67319965 12.62526989 C-5.91642761 12.24050903 -5.91642761 12.24050903 -7.73151684 10.93824482 C-8.91642761 9.24050903 -8.91642761 9.24050903 -8.79142761 5.67800903 C-7.44931029 0.40540526 -4.96835759 -0.01038319 0 0 Z " fill="#e3e0e0" transform="translate(170.9164276123047,383.7594909667969)"/>
<path d="M0 0 C2.03637695 1.46875 2.03637695 1.46875 3.98828125 3.5 C4.69404297 4.221875 5.39980469 4.94375 6.12695312 5.6875 C7.20879883 6.8321875 7.20879883 6.8321875 8.3125 8 C9.42334961 9.1446875 9.42334961 9.1446875 10.55664062 10.3125 C12.38283156 12.19760032 14.19635759 14.09335569 16 16 C18.92825786 14.69180563 20.85136178 13.34327751 22.98828125 10.9609375 C23.53033203 10.38085938 24.07238281 9.80078125 24.63085938 9.203125 C25.75051429 7.98593917 26.85999383 6.75931299 27.95898438 5.5234375 C30.99442524 2.31239262 32.2675986 1.1010729 36.79296875 0.4765625 C40 1 40 1 42 3 C42.59375 6.12890625 42.59375 6.12890625 42 10 C39.84230455 13.01526018 37.22430608 15.43653793 34.5 17.9375 C33.42685547 18.96327148 33.42685547 18.96327148 32.33203125 20.00976562 C30.56944695 21.69009599 28.79269461 23.3519288 27 25 C28.81309649 28.9453779 31.39611693 31.59095303 34.5 34.5625 C37.28371756 37.24911113 39.83893222 39.75839833 42 43 C41.43396226 49.56603774 41.43396226 49.56603774 40 51 C36.75 51.375 36.75 51.375 33 51 C30.59765625 48.80859375 30.59765625 48.80859375 28 46 C27.11699219 45.11699219 26.23398437 44.23398437 25.32421875 43.32421875 C22.8828125 40.8828125 20.44140625 38.44140625 18 36 C13.93122232 37.65109819 11.02285879 40.53595778 7.875 43.5 C7.33746094 43.99886719 6.79992187 44.49773437 6.24609375 45.01171875 C4.13236554 46.97785496 2.04136111 48.95863889 0 51 C-2.9375 51.375 -2.9375 51.375 -6 51 C-7.9375 49.375 -7.9375 49.375 -9 47 C-8.70108953 42.02042329 -7.41832423 39.81380778 -3.8125 36.4375 C-3.00554687 35.674375 -2.19859375 34.91125 -1.3671875 34.125 C1.36801705 31.66963486 4.12265551 29.28711998 7 27 C5.35009794 22.70402861 2.18257193 19.99482354 -1.0625 16.875 C-7.8928658 10.25882686 -7.8928658 10.25882686 -8.25 6.0625 C-8 3 -8 3 -6.8125 1.125 C-4.34560153 -0.40617836 -2.87141516 -0.31487965 0 0 Z " fill="#EDEDED" transform="translate(335,370)"/>
<path d="M0 0 C1.00853027 -0.00686325 2.01706055 -0.0137265 3.05615234 -0.02079773 C6.39174453 -0.03910775 9.72686832 -0.03522248 13.0625 -0.02954102 C15.37890781 -0.03410046 17.69531427 -0.03940532 20.01171875 -0.04542542 C24.8672434 -0.05436455 29.72260363 -0.05192378 34.578125 -0.04199219 C40.80612181 -0.03049579 47.03355222 -0.05072074 53.26147461 -0.07990932 C58.04495865 -0.09823741 62.82830608 -0.09798571 67.61181641 -0.0922718 C69.90837397 -0.09211821 72.20494058 -0.0981942 74.50146484 -0.11056328 C77.70967371 -0.12540873 80.91682469 -0.11484336 84.125 -0.09765625 C85.07681152 -0.10732422 86.02862305 -0.11699219 87.00927734 -0.12695312 C93.39209146 -0.05519937 93.39209146 -0.05519937 96.69140625 2.2049408 C98.0625 4.40405273 98.0625 4.40405273 97.9375 8.09155273 C97.64875 9.18467773 97.36 10.27780273 97.0625 11.40405273 C94.7424802 12.56406263 93.40103847 12.53459227 90.81800842 12.54449463 C89.48253716 12.55305984 89.48253716 12.55305984 88.12008667 12.5617981 C87.14081207 12.56291595 86.16153748 12.56403381 85.15258789 12.56518555 C83.60856041 12.5726329 83.60856041 12.5726329 82.03334045 12.58023071 C78.61727234 12.59487464 75.20125064 12.60165749 71.78515625 12.60717773 C69.41865537 12.61292664 67.05215452 12.6186844 64.68565369 12.62445068 C59.71987693 12.63496654 54.7541164 12.64080562 49.78833008 12.64428711 C43.41456716 12.64977796 37.04101722 12.67381631 30.66732121 12.70225906 C25.77839016 12.72084874 20.88951082 12.72608905 16.00054741 12.72762299 C13.6501289 12.73065754 11.29971146 12.73871286 8.94932747 12.75180817 C5.66665378 12.76879444 2.38450601 12.76700666 -0.89819336 12.76049805 C-1.87544373 12.76971283 -2.85269409 12.77892761 -3.85955811 12.78842163 C-5.19925911 12.7800679 -5.19925911 12.7800679 -6.56602478 12.77154541 C-7.34234221 12.77301197 -8.11865965 12.77447853 -8.91850185 12.77598953 C-11.49512936 12.30132709 -12.37513457 11.4776926 -13.9375 9.40405273 C-14.375 6.40405273 -14.375 6.40405273 -13.9375 3.40405273 C-10.33227915 -0.85747009 -5.11943862 -0.02421268 0 0 Z " fill="#e3e0e0" transform="translate(177.9375,410.595947265625)"/>
<path d="M0 0 C0.9712532 -0.00525696 0.9712532 -0.00525696 1.96212769 -0.01062012 C4.10189547 -0.01942021 6.24133238 -0.01359387 8.38110352 -0.00683594 C9.8693905 -0.00818325 11.35767705 -0.01012434 12.84596252 -0.01263428 C15.96554758 -0.01558334 19.0850181 -0.01129558 22.20458984 -0.00195312 C26.20057787 0.00943146 30.19629693 0.00288699 34.19227505 -0.00909805 C37.26607788 -0.01633103 40.33981714 -0.01402196 43.4136219 -0.00884247 C44.88680109 -0.00750943 46.35998607 -0.00914157 47.83315849 -0.01380157 C49.89413572 -0.01888941 51.95467996 -0.01112486 54.015625 0 C55.18794174 0.00159119 56.36025848 0.00318237 57.56809998 0.00482178 C60.50675119 0.25323039 62.19642129 0.53137241 64.57250977 2.25878906 C65.51000977 5.69628906 65.51000977 5.69628906 65.57250977 9.25878906 C64.49633789 10.95619202 64.49633789 10.95619202 62.57250977 12.25878906 C59.57446289 12.64646912 59.57446289 12.64646912 55.85375977 12.6628418 C54.83620605 12.67313667 54.83620605 12.67313667 53.7980957 12.68363953 C51.55602076 12.70193934 49.31464335 12.69806625 47.07250977 12.69238281 C45.51456473 12.69694278 43.95662172 12.7022478 42.39868164 12.70826721 C39.13362455 12.71720427 35.86881197 12.71476819 32.60375977 12.70483398 C28.41687791 12.69333715 24.23083853 12.7135628 20.04406738 12.74275112 C16.82701242 12.76108435 13.61016049 12.7608266 10.39306641 12.7551136 C8.84927182 12.75496006 7.30546375 12.76103111 5.76171875 12.77340508 C3.60435889 12.78826197 1.44856998 12.77768031 -0.70874023 12.76049805 C-1.93657227 12.76033188 -3.1644043 12.76016571 -4.42944336 12.75999451 C-7.42749023 12.25878906 -7.42749023 12.25878906 -9.35522461 10.42274475 C-10.88107138 7.34341001 -10.4114809 5.49190125 -9.42749023 2.25878906 C-5.84341972 -0.13059128 -4.25747503 0.0057826 0 0 Z " fill="#e3e0e0" transform="translate(219.427490234375,215.7412109375)"/>
<path d="M0 0 C0.65740173 -0.00846954 1.31480347 -0.01693909 1.99212646 -0.02566528 C4.15901175 -0.0490103 6.32518613 -0.05005826 8.4921875 -0.04882812 C10.00146773 -0.05593035 11.51074525 -0.06362945 13.02001953 -0.07189941 C16.18074047 -0.08533775 19.34121163 -0.0869156 22.50195312 -0.08105469 C26.5509828 -0.0751535 30.5988155 -0.10576851 34.64761353 -0.14617157 C37.76349333 -0.17202689 40.87908386 -0.17492815 43.99505615 -0.17127991 C45.48780328 -0.17297266 46.98056354 -0.18263034 48.47320557 -0.20042419 C50.56107679 -0.22257858 52.64651169 -0.21293578 54.734375 -0.1953125 C55.92144043 -0.19736694 57.10850586 -0.19942139 58.33154297 -0.20153809 C61.3671875 0.41992188 61.3671875 0.41992188 63.82470703 2.75524902 C65.3671875 5.41992188 65.3671875 5.41992188 64.6796875 8.66992188 C63.3671875 11.41992188 63.3671875 11.41992188 62.3671875 12.41992188 C60.20542314 12.53002092 58.04002128 12.56906105 55.87548828 12.58105469 C55.19741119 12.58601959 54.51933411 12.5909845 53.82070923 12.59609985 C51.56796265 12.61075574 49.3152865 12.61752933 47.0625 12.62304688 C45.50169878 12.6287958 43.94089759 12.63455356 42.38009644 12.64031982 C39.1031664 12.65083976 35.82626097 12.65667582 32.54931641 12.66015625 C28.34685888 12.66564116 24.14472535 12.68966466 19.94236946 12.7181282 C16.716777 12.73673772 13.4912628 12.74195929 10.26562119 12.74349213 C8.71623845 12.74652335 7.16685724 12.75456766 5.61752701 12.76767731 C3.45065832 12.78470226 1.28458391 12.78286673 -0.88232422 12.77636719 C-2.11618866 12.78001282 -3.3500531 12.78365845 -4.62130737 12.78741455 C-7.6328125 12.41992188 -7.6328125 12.41992188 -9.52737427 11.08514404 C-11.27992501 8.44511744 -11.08105994 6.49361861 -10.6328125 3.41992188 C-7.37405363 0.06324238 -4.54352463 0.03222467 0 0 Z " fill="#e3e0e0" transform="translate(220.6328125,242.580078125)"/>
</svg>
